<svg width="131" height="18" viewBox="0 0 131 18" fill="none" xmlns="http://www.w3.org/2000/svg">
<path fill-rule="evenodd" clip-rule="evenodd" d="M36.744 9.768C36.184 9.048 35.416 8.552 34.44 8.28C35.128 7.944 35.672 7.456 36.072 6.816C36.488 6.176 36.696 5.416 36.696 4.536C36.696 3.176 36.168 2.112 35.112 1.344C34.072 0.575999 32.592 0.191999 30.672 0.191999H23.136V16.992H31.152C33.248 16.992 34.84 16.6 35.928 15.816C37.032 15.032 37.584 13.912 37.584 12.456C37.584 11.368 37.304 10.472 36.744 9.768ZM25.536 7.512V2.136H30.456C31.688 2.136 32.632 2.368 33.288 2.832C33.96 3.28 34.296 3.944 34.296 4.824C34.296 5.704 33.96 6.376 33.288 6.84C32.632 7.288 31.688 7.512 30.456 7.512H25.536ZM34.128 14.376C33.44 14.824 32.416 15.048 31.056 15.048H25.536V9.456H31.056C33.792 9.456 35.16 10.392 35.16 12.264C35.16 13.224 34.816 13.928 34.128 14.376ZM43.0281 15.264C44.2761 16.544 46.0201 17.184 48.2601 17.184C50.5001 17.184 52.2441 16.552 53.4921 15.288C54.7401 14.008 55.3641 12.16 55.3641 9.744V0.191999H53.0361V9.648C53.0361 11.472 52.6281 12.832 51.8121 13.728C50.9961 14.608 49.8201 15.048 48.2841 15.048C45.1321 15.048 43.5561 13.248 43.5561 9.648V0.191999H41.1561V9.744C41.1561 12.144 41.7801 13.984 43.0281 15.264ZM75.8365 4.752L75.8605 16.992H78.1645L78.1405 0.191999H76.1725L69.2605 12L62.2525 0.191999H60.2845V16.992H62.5885V4.824L68.6605 14.952H69.7645L75.8365 4.752ZM90.2863 0.191999H83.2063V16.992H90.2863C92.0623 16.992 93.6383 16.64 95.0143 15.936C96.3903 15.232 97.4543 14.248 98.2063 12.984C98.9743 11.704 99.3583 10.24 99.3583 8.592C99.3583 6.944 98.9743 5.488 98.2063 4.224C97.4543 2.944 96.3903 1.952 95.0143 1.248C93.6383 0.543999 92.0623 0.191999 90.2863 0.191999ZM93.7183 14.112C92.6943 14.64 91.5023 14.904 90.1423 14.904H85.6063V2.28H90.1423C91.5023 2.28 92.6943 2.544 93.7183 3.072C94.7583 3.6 95.5583 4.344 96.1183 5.304C96.6783 6.248 96.9583 7.344 96.9583 8.592C96.9583 9.84 96.6783 10.944 96.1183 11.904C95.5583 12.848 94.7583 13.584 93.7183 14.112ZM115.226 16.992V14.904H105.434V9.48H113.858V7.44H105.434V2.28H114.89V0.191999H103.034V16.992H115.226ZM120.337 16.608C121.521 16.992 122.745 17.184 124.009 17.184C125.433 17.184 126.633 16.976 127.609 16.56C128.585 16.128 129.313 15.552 129.793 14.832C130.273 14.096 130.513 13.288 130.513 12.408C130.513 11.352 130.233 10.512 129.673 9.888C129.129 9.264 128.473 8.8 127.705 8.496C126.937 8.192 125.921 7.888 124.657 7.584C123.681 7.36 122.905 7.152 122.329 6.96C121.769 6.752 121.297 6.472 120.913 6.12C120.529 5.752 120.337 5.28 120.337 4.704C120.337 3.92 120.673 3.28 121.345 2.784C122.033 2.288 123.057 2.04 124.417 2.04C125.185 2.04 125.969 2.16 126.769 2.4C127.569 2.624 128.321 2.96 129.025 3.408L129.817 1.488C129.129 1.008 128.305 0.639999 127.345 0.383999C126.385 0.128 125.409 0 124.417 0C122.993 0 121.801 0.216 120.841 0.647999C119.881 1.08 119.161 1.656 118.681 2.376C118.217 3.096 117.985 3.904 117.985 4.8C117.985 5.872 118.257 6.728 118.801 7.368C119.361 7.992 120.025 8.456 120.793 8.76C121.577 9.064 122.601 9.368 123.865 9.672C124.873 9.912 125.649 10.128 126.193 10.32C126.753 10.512 127.217 10.792 127.585 11.16C127.969 11.512 128.161 11.976 128.161 12.552C128.161 13.336 127.817 13.968 127.129 14.448C126.441 14.912 125.401 15.144 124.009 15.144C122.953 15.144 121.921 14.968 120.913 14.616C119.921 14.248 119.105 13.776 118.465 13.2L117.577 15.072C118.249 15.696 119.169 16.208 120.337 16.608ZM6.744 6.696L7.296 3.864H15.768L16.512 0.191996H3.36L0 16.992H13.464L14.232 13.32H5.424L6.024 10.248H13.512L14.208 6.696H6.744Z" fill="white"/>
</svg>
